<svg width="91" height="37" viewBox="0 0 91 37" fill="none" xmlns="http://www.w3.org/2000/svg">
<path d="M9.952 36.576C7.712 36.576 5.568 35.936 3.52 34.656C2.496 34.016 1.648 33.12 0.976 31.968C0.336 30.816 0.0160002 29.488 0.0160002 27.984C0.0160002 25.136 0.96 22.816 2.848 21.024C4.736 19.232 7.008 18.192 9.664 17.904C7.872 17.424 6.432 16.592 5.344 15.408C4.288 14.224 3.76 12.72 3.76 10.896C3.76 8.144 4.832 5.968 6.976 4.368C9.152 2.736 11.632 1.92 14.416 1.92C17.2 1.92 19.52 2.512 21.376 3.696C23.232 4.88 24.16 6.48 24.16 8.496C24.16 9.2 24.032 9.888 23.776 10.56C23.552 11.232 23.312 11.712 23.056 12L22.72 12.48C21.696 12.48 20.56 12.304 19.312 11.952C18.096 11.6 17.2 11.152 16.624 10.608L17.2 5.664C16.72 5.184 15.904 4.944 14.752 4.944C13.632 4.944 12.736 5.536 12.064 6.72C11.424 7.872 11.104 9.2 11.104 10.704C11.104 12.208 11.28 13.344 11.632 14.112C11.984 14.88 12.48 15.472 13.12 15.888C14.112 16.528 15.28 16.976 16.624 17.232L16.24 19.872C13.936 19.872 11.936 20.56 10.24 21.936C8.544 23.28 7.696 25.072 7.696 27.312C7.696 28.72 8.144 29.888 9.04 30.816C9.968 31.712 11.152 32.16 12.592 32.16C15.216 32.16 17.904 30.832 20.656 28.176L22.576 29.952C18.864 34.368 14.656 36.576 9.952 36.576ZM27.8391 36.576C26.7511 36.576 25.8391 36.208 25.1031 35.472C24.3991 34.736 24.0471 33.712 24.0471 32.4C24.0471 31.056 24.8311 26.816 26.3991 19.68C27.9991 12.512 28.7991 7.344 28.7991 4.176L28.5111 2.064C31.0071 1.2 33.3431 0.767999 35.5191 0.767999C35.8391 1.216 35.9991 2 35.9991 3.12C35.9991 5.68 35.1831 10.64 33.5511 18C31.9511 25.328 31.1511 29.6 31.1511 30.816C31.1511 32 31.2951 32.592 31.5831 32.592L34.9431 31.392L35.8071 33.072C34.7191 33.936 33.3911 34.736 31.8231 35.472C30.2871 36.208 28.9591 36.576 27.8391 36.576ZM36.7011 27.696C36.7011 23.696 37.9011 20.544 40.3011 18.24C42.7331 15.904 45.4851 14.736 48.5571 14.736C50.4451 14.736 51.9971 15.2 53.2131 16.128C54.4291 17.056 55.0371 18.304 55.0371 19.872C55.0371 21.408 54.6371 22.704 53.8371 23.76C53.0691 24.816 52.1251 25.632 51.0051 26.208C48.7331 27.328 46.6531 28.032 44.7651 28.32L43.6131 28.464C43.8371 31.472 45.0691 32.976 47.3091 32.976C48.0771 32.976 48.8931 32.784 49.7571 32.4C50.6211 32.016 51.2931 31.632 51.7731 31.248L52.4931 30.672L53.6451 32.208C53.3891 32.56 52.8771 33.024 52.1091 33.6C51.3411 34.176 50.6211 34.656 49.9491 35.04C48.0931 36.064 46.0611 36.576 43.8531 36.576C41.6451 36.576 39.9011 35.792 38.6211 34.224C37.3411 32.656 36.7011 30.48 36.7011 27.696ZM43.5651 26.112C45.1971 25.824 46.4931 25.136 47.4531 24.048C48.4131 22.96 48.8931 21.552 48.8931 19.824C48.8931 18.096 48.3811 17.232 47.3571 17.232C46.1411 17.232 45.1971 18.272 44.5251 20.352C43.8851 22.4 43.5651 24.32 43.5651 26.112ZM62.785 36.576C60.577 36.576 58.849 35.808 57.601 34.272C56.353 32.704 55.729 30.528 55.729 27.744C55.729 24.192 56.673 21.136 58.561 18.576C60.481 16.016 63.121 14.736 66.481 14.736L68.209 14.832C68.753 14.544 69.361 14.4 70.033 14.4C72.561 14.4 73.825 16.784 73.825 21.552C75.137 21.488 76.465 21.312 77.809 21.024L78.577 20.832L78.865 22.704C77.809 23.152 76.385 23.552 74.593 23.904L73.633 24.096C73.025 27.456 71.793 30.384 69.937 32.88C68.081 35.344 65.697 36.576 62.785 36.576ZM65.377 32.448C66.721 32.448 67.921 31.584 68.977 29.856C70.065 28.128 70.817 26.304 71.233 24.384C67.809 24.384 66.097 23.104 66.097 20.544C66.097 19.52 66.305 18.56 66.721 17.664L66.961 17.184C66.833 17.12 66.673 17.088 66.481 17.088C66.289 17.088 66.145 17.12 66.049 17.184C65.249 17.696 64.497 18.896 63.793 20.784C63.089 22.672 62.737 24.832 62.737 27.264C62.737 30.72 63.617 32.448 65.377 32.448ZM90.3033 29.712C90.3033 31.728 89.4073 33.376 87.6153 34.656C85.8553 35.936 83.8393 36.576 81.5673 36.576C79.2953 36.576 77.4873 36.096 76.1433 35.136C74.8313 34.176 74.1753 33.328 74.1753 32.592C74.1753 32.144 74.7353 31.424 75.8553 30.432C76.9753 29.408 77.9193 28.784 78.6873 28.56C80.2873 29.744 81.5993 31.616 82.6233 34.176C83.8073 34.08 84.3993 33.52 84.3993 32.496C84.3993 31.024 83.1033 28.944 80.5113 26.256C77.9193 23.536 76.6233 21.376 76.6233 19.776C76.6233 18.176 77.3433 16.944 78.7833 16.08C80.2233 15.184 81.9513 14.736 83.9673 14.736C86.0153 14.736 87.5513 15.104 88.5753 15.84C89.5993 16.544 90.1113 17.52 90.1113 18.768C90.1113 19.984 89.1353 21.68 87.1833 23.856C87.4073 24.08 87.6953 24.384 88.0473 24.768C88.3993 25.12 88.8633 25.808 89.4393 26.832C90.0153 27.856 90.3033 28.816 90.3033 29.712ZM85.6953 22.176C87.0393 21.024 87.7113 19.888 87.7113 18.768C87.7113 17.648 86.9433 17.088 85.4073 17.088C84.6713 17.088 84.0633 17.248 83.5833 17.568C83.1033 17.856 82.8633 18.192 82.8633 18.576C82.8633 19.28 83.5673 20.272 84.9753 21.552L85.6953 22.176Z" fill="#09C184"/>
</svg>
